<svg width="274" height="62" viewBox="0 0 274 62" fill="none" xmlns="http://www.w3.org/2000/svg">
<path d="M23.7407 48.4204C21.55 48.4204 19.3368 48.1074 17.1014 47.4815C14.8659 46.8108 12.7198 45.8272 10.6632 44.5306C8.60657 43.1893 6.77348 41.5575 5.16394 39.6349C3.59911 37.6677 2.34725 35.4099 1.40835 32.8615C0.469449 30.2683 0 27.4069 0 24.2772C0 21.1923 0.469449 18.4203 1.40835 15.9613C2.34725 13.4575 3.59911 11.2668 5.16394 9.38899C6.77348 7.51119 8.58422 5.94636 10.5961 4.69449C12.6528 3.44263 14.7988 2.50373 17.0343 1.8778C19.3145 1.20715 21.5723 0.849477 23.8078 0.804768C26.088 0.804768 28.0552 1.05067 29.7094 1.54247C31.3637 2.03428 32.705 2.57079 33.7333 3.15202C34.7616 3.68853 35.4546 4.06856 35.8123 4.29211C36.5276 4.7392 37.1983 5.25336 37.8242 5.83458C38.4949 6.3711 38.8525 7.04174 38.8972 7.84651C38.9419 8.38302 38.8749 8.87483 38.696 9.32192C38.5172 9.72431 38.2713 10.149 37.9583 10.5961C37.4218 11.3562 36.8853 11.9151 36.3488 12.2727C35.8123 12.6304 35.2758 12.8093 34.7393 12.8093C34.2475 12.8093 33.778 12.6751 33.3309 12.4069C32.9285 12.1386 32.4144 11.8033 31.7884 11.4009C31.5202 11.2221 31.0284 10.9538 30.313 10.5961C29.6424 10.1938 28.7258 9.83608 27.5634 9.52311C26.4457 9.21015 25.082 9.05367 23.4725 9.05367C21.55 9.05367 19.6722 9.38899 17.8391 10.0596C16.006 10.7303 14.3517 11.7362 12.8763 13.0775C11.4456 14.3741 10.3055 16.006 9.45605 17.9732C8.60657 19.8957 8.18183 22.1088 8.18183 24.6126C8.18183 27.1163 8.60657 29.3518 9.45605 31.319C10.3055 33.2415 11.4456 34.8734 12.8763 36.2147C14.3517 37.5112 16.006 38.4949 17.8391 39.1655C19.6722 39.8361 21.55 40.1715 23.4725 40.1715C24.9926 40.1715 26.2892 40.0373 27.3622 39.7691C28.4799 39.4561 29.4188 39.0984 30.1789 38.696C30.9837 38.249 31.5872 37.9136 31.9896 37.6901C32.4814 37.3771 32.9509 37.0865 33.398 36.8182C33.8451 36.55 34.3145 36.4159 34.8063 36.4159C35.3428 36.4159 35.857 36.5947 36.3488 36.9524C36.8853 37.3101 37.3995 37.8913 37.8913 38.696C38.2042 39.1879 38.4501 39.6573 38.629 40.1044C38.8078 40.5515 38.8749 41.0209 38.8302 41.5127C38.7855 42.3175 38.4278 43.0105 37.7571 43.5917C37.1312 44.1282 36.4606 44.5977 35.7452 45.0001C35.3875 45.2236 34.6945 45.626 33.6662 46.2072C32.6826 46.7437 31.3637 47.2356 29.7094 47.6826C28.0552 48.1745 26.0656 48.4204 23.7407 48.4204Z" fill="white"/>
<path d="M71.0708 48.018C69.7742 48.018 68.8129 47.7721 68.187 47.2803C67.5611 46.7885 67.2481 46.1178 67.2481 45.2683L67.7176 43.0552C67.3599 43.6364 66.7563 44.3294 65.9068 45.1342C65.0573 45.8943 63.9396 46.5873 62.5536 47.2132C61.1676 47.7944 59.491 48.085 57.5238 48.085C55.4224 48.085 53.4329 47.6603 51.5551 46.8108C49.722 45.9166 48.0901 44.7095 46.6594 43.1893C45.2734 41.6245 44.1557 39.8585 43.3062 37.8913C42.5014 35.8793 42.099 33.7333 42.099 31.4531C42.099 29.2623 42.5014 27.2057 43.3062 25.2832C44.1557 23.316 45.2958 21.5723 46.7265 20.0522C48.1572 18.5321 49.7891 17.3473 51.6221 16.4978C53.4999 15.6036 55.4672 15.1565 57.5238 15.1565C59.3569 15.1565 60.8994 15.4024 62.1512 15.8942C63.4478 16.386 64.5432 17.012 65.4374 17.772C66.3316 18.4874 67.0693 19.2474 67.6505 20.0522L67.2481 18.1073C67.2481 17.1237 67.5611 16.386 68.187 15.8942C68.8129 15.3577 69.7965 15.0894 71.1378 15.0894C72.3897 15.0894 73.2839 15.2906 73.8204 15.693C74.3569 16.0507 74.6922 16.5649 74.8264 17.2355C74.9605 17.8614 75.0276 18.5768 75.0276 19.3816V43.927C75.0276 44.6871 74.9605 45.3801 74.8264 46.006C74.6922 46.632 74.3346 47.1238 73.7533 47.4815C73.2168 47.8391 72.3226 48.018 71.0708 48.018Z" fill="white"/>
<path d="M93.2245 48.5545C92.062 48.5545 90.8325 48.4204 89.5359 48.1521C88.2394 47.9285 86.9875 47.5932 85.7804 47.1461C84.5732 46.6543 83.5225 46.0955 82.6283 45.4695C81.7789 44.7989 81.2423 44.0612 81.0188 43.2564C80.84 42.8093 80.7729 42.3846 80.8176 41.9822C80.8623 41.5351 80.9964 41.088 81.22 40.6409C81.4435 40.1491 81.7789 39.6573 82.226 39.1655C82.6283 38.6737 83.0307 38.4054 83.4331 38.3607C83.8802 38.2713 84.4391 38.4054 85.1097 38.7631C85.6909 38.9867 86.3169 39.2773 86.9875 39.6349C87.7029 39.9926 88.4182 40.3503 89.1336 40.708C89.8936 41.0656 90.6537 41.3563 91.4137 41.5798C92.2185 41.8034 93.0009 41.9151 93.761 41.9151C95.4152 41.9151 96.7342 41.6469 97.7178 41.1104C98.7014 40.5291 99.1932 39.7244 99.1932 38.696C99.1932 38.1148 99.0367 37.6007 98.7237 37.1536C98.4108 36.7065 97.986 36.3488 97.4495 36.0805C96.9577 35.7676 96.3541 35.4993 95.6388 35.2758C94.9681 35.0075 94.2304 34.784 93.4257 34.6051C92.6656 34.3816 91.8608 34.1357 91.0114 33.8674C89.8936 33.5545 88.7759 33.1744 87.6582 32.7273C86.5404 32.2802 85.5345 31.699 84.6403 30.9837C83.7908 30.2683 83.0978 29.3741 82.5613 28.3011C82.0248 27.2281 81.7565 25.8868 81.7565 24.2772C81.7565 22.2653 82.2259 20.5664 83.1648 19.1804C84.1485 17.7497 85.5568 16.6543 87.3899 15.8942C89.223 15.1342 91.4361 14.7541 94.0293 14.7541C94.9234 14.7541 95.7729 14.8212 96.5777 14.9553C97.4272 15.0894 98.2319 15.2906 98.992 15.5589C99.7968 15.7824 100.557 16.0731 101.272 16.4307C102.032 16.7884 102.748 17.1908 103.418 17.6379C104.536 18.2638 105.117 19.0015 105.162 19.851C105.207 20.6558 104.894 21.5276 104.223 22.4665C103.731 23.0924 103.239 23.5395 102.748 23.8078C102.256 24.0313 101.742 24.0313 101.205 23.8078C100.49 23.4501 99.7074 23.0701 98.8579 22.6677C98.0531 22.2206 97.2036 21.8406 96.3094 21.5276C95.46 21.2146 94.5658 21.0582 93.6269 21.0582C92.7327 21.0582 91.9279 21.1923 91.2126 21.4605C90.4972 21.7288 89.9607 22.1088 89.603 22.6006C89.2453 23.0924 89.0665 23.6737 89.0665 24.3443C89.0665 24.9702 89.2453 25.4844 89.603 25.8868C89.9607 26.2892 90.4301 26.6245 91.0114 26.8927C91.5926 27.161 92.2856 27.4069 93.0903 27.6305C93.8951 27.8093 94.7446 27.9881 95.6388 28.167C96.8907 28.4352 98.1649 28.7705 99.4614 29.1729C100.758 29.5753 101.943 30.1342 103.016 30.8495C104.134 31.5649 105.028 32.5261 105.698 33.7333C106.369 34.8957 106.704 36.4159 106.704 38.2937C106.704 41.5574 105.497 44.0835 103.083 45.8719C100.713 47.6603 97.4272 48.5545 93.2245 48.5545Z" fill="white"/>
<path d="M116.159 48.1521C114.908 48.1521 113.991 47.9509 113.41 47.5485C112.873 47.1908 112.538 46.699 112.404 46.0731C112.27 45.4472 112.203 44.7765 112.203 44.0612V4.02385C112.203 3.26379 112.27 2.59315 112.404 2.01192C112.583 1.38599 112.94 0.894187 113.477 0.536511C114.058 0.178837 114.975 0 116.226 0C117.478 0 118.373 0.201191 118.909 0.603574C119.49 0.96125 119.848 1.45305 119.982 2.07899C120.161 2.66021 120.25 3.33085 120.25 4.09092V19.2474C121.144 18.2191 122.285 17.2802 123.671 16.4307C125.101 15.5365 126.823 15.0894 128.835 15.0894C131.562 15.0894 133.998 15.7601 136.145 17.1014C138.291 18.3979 139.99 20.2087 141.241 22.5336C142.493 24.8585 143.119 27.5857 143.119 30.7154V44.1282C143.119 44.8436 143.052 45.5142 142.918 46.1402C142.784 46.7214 142.426 47.1908 141.845 47.5485C141.308 47.9062 140.414 48.085 139.162 48.085C137.911 48.085 136.994 47.9062 136.413 47.5485C135.832 47.1908 135.474 46.7214 135.34 46.1402C135.206 45.5142 135.139 44.7989 135.139 43.9941V30.6483C135.139 29.0835 134.87 27.7199 134.334 26.5574C133.797 25.395 132.993 24.5008 131.919 23.8749C130.891 23.2042 129.595 22.8689 128.03 22.8689C125.928 22.8689 124.162 23.4948 122.732 24.7467C121.301 25.9538 120.474 27.5187 120.25 29.4412V44.1282C120.25 44.8436 120.161 45.5142 119.982 46.1402C119.848 46.7661 119.49 47.2579 118.909 47.6156C118.373 47.9733 117.456 48.1521 116.159 48.1521Z" fill="white"/>
<path d="M220.212 47.6826C218.021 47.6826 216.054 47.2803 214.31 46.4755C212.612 45.626 211.158 44.4636 209.951 42.9882C208.789 41.468 207.895 39.7244 207.269 37.7571C206.687 35.7899 206.397 33.6662 206.397 31.386C206.442 29.1059 206.777 26.9822 207.403 25.0149C208.029 23.003 208.923 21.2594 210.085 19.7839C211.293 18.3085 212.746 17.1461 214.445 16.2966C216.144 15.4471 218.066 15.0224 220.212 15.0224C222.269 15.0224 224.191 15.4471 225.98 16.2966C227.813 17.1461 229.422 18.3309 230.808 19.851C232.239 21.3711 233.357 23.1371 234.161 25.1491C234.966 27.1163 235.369 29.24 235.369 31.5202C235.369 33.8451 234.966 35.9911 234.161 37.9583C233.357 39.9256 232.261 41.6469 230.875 43.1223C229.489 44.553 227.88 45.6707 226.047 46.4755C224.214 47.2803 222.269 47.6826 220.212 47.6826ZM206.799 61.632C205.592 61.632 204.698 61.4532 204.117 61.0955C203.535 60.7378 203.178 60.2684 203.044 59.6871C202.91 59.1059 202.842 58.4353 202.842 57.6752V19.1133C202.842 18.3532 202.91 17.6826 203.044 17.1014C203.178 16.5201 203.513 16.0507 204.05 15.693C204.631 15.2906 205.525 15.0894 206.732 15.0894C207.895 15.0894 208.811 15.2683 209.482 15.626C210.152 15.9836 210.6 16.5872 210.823 17.4367V57.6082C210.868 58.3682 210.801 59.0389 210.622 59.6201C210.488 60.246 210.13 60.7378 209.549 61.0955C208.968 61.4532 208.051 61.632 206.799 61.632ZM219.139 40.1715C220.704 40.1715 222.112 39.8138 223.364 39.0984C224.616 38.3384 225.6 37.3101 226.315 36.0135C227.075 34.6722 227.455 33.1744 227.455 31.5202C227.455 29.8212 227.075 28.3234 226.315 27.0269C225.6 25.7303 224.616 24.7243 223.364 24.009C222.112 23.2489 220.704 22.8689 219.139 22.8689C217.619 22.8689 216.233 23.2489 214.981 24.009C213.729 24.769 212.723 25.7974 211.963 27.0939C211.248 28.3458 210.89 29.8212 210.89 31.5202C210.89 33.1744 211.248 34.6722 211.963 36.0135C212.723 37.3101 213.729 38.3384 214.981 39.0984C216.233 39.8138 217.619 40.1715 219.139 40.1715Z" fill="white"/>
<path d="M258.001 47.6826C255.81 47.6826 253.843 47.2803 252.1 46.4755C250.401 45.626 248.948 44.4636 247.74 42.9882C246.578 41.468 245.684 39.7244 245.058 37.7571C244.477 35.7899 244.186 33.6662 244.186 31.386C244.231 29.1059 244.566 26.9822 245.192 25.0149C245.818 23.003 246.712 21.2594 247.875 19.7839C249.082 18.3085 250.535 17.1461 252.234 16.2966C253.933 15.4471 255.855 15.0224 258.001 15.0224C260.058 15.0224 261.98 15.4471 263.769 16.2966C265.602 17.1461 267.211 18.3309 268.597 19.851C270.028 21.3711 271.146 23.1371 271.951 25.1491C272.755 27.1163 273.158 29.24 273.158 31.5202C273.158 33.8451 272.755 35.9911 271.951 37.9583C271.146 39.9256 270.05 41.6469 268.664 43.1223C267.278 44.553 265.669 45.6707 263.836 46.4755C262.003 47.2803 260.058 47.6826 258.001 47.6826ZM244.588 61.632C243.381 61.632 242.487 61.4532 241.906 61.0955C241.325 60.7378 240.967 60.2684 240.833 59.6871C240.699 59.1059 240.632 58.4353 240.632 57.6752V19.1133C240.632 18.3532 240.699 17.6826 240.833 17.1014C240.967 16.5201 241.302 16.0507 241.839 15.693C242.42 15.2906 243.314 15.0894 244.521 15.0894C245.684 15.0894 246.6 15.2683 247.271 15.626C247.942 15.9836 248.389 16.5872 248.612 17.4367V57.6082C248.657 58.3682 248.59 59.0389 248.411 59.6201C248.277 60.246 247.919 60.7378 247.338 61.0955C246.757 61.4532 245.84 61.632 244.588 61.632ZM256.928 40.1715C258.493 40.1715 259.901 39.8138 261.153 39.0984C262.405 38.3384 263.389 37.3101 264.104 36.0135C264.864 34.6722 265.244 33.1744 265.244 31.5202C265.244 29.8212 264.864 28.3234 264.104 27.0269C263.389 25.7303 262.405 24.7243 261.153 24.009C259.901 23.2489 258.493 22.8689 256.928 22.8689C255.408 22.8689 254.022 23.2489 252.77 24.009C251.518 24.769 250.512 25.7974 249.752 27.0939C249.037 28.3458 248.679 29.8212 248.679 31.5202C248.679 33.1744 249.037 34.6722 249.752 36.0135C250.512 37.3101 251.518 38.3384 252.77 39.0984C254.022 39.8138 255.408 40.1715 256.928 40.1715Z" fill="white"/>
<path d="M179.317 50.4239C176.187 50.4239 173.393 49.865 170.934 48.7473C168.52 47.5848 166.485 45.9977 164.831 43.9857C163.177 41.9291 161.925 39.6042 161.075 37.0111C160.226 34.3732 159.801 31.5789 159.801 28.628V7.23455C159.801 6.47449 159.868 5.80385 160.002 5.22262C160.181 4.59669 160.539 4.10489 161.075 3.74721C161.657 3.34482 162.596 3.14363 163.892 3.14363C165.189 3.14363 166.105 3.34482 166.642 3.74721C167.223 4.10489 167.581 4.59669 167.715 5.22262C167.894 5.80385 167.983 6.49684 167.983 7.30161V28.628C167.983 31.0871 168.385 33.3672 169.19 35.4686C170.04 37.5252 171.314 39.1795 173.013 40.4313C174.712 41.6832 176.88 42.3091 179.518 42.3091C181.888 42.3091 183.922 41.7503 185.621 40.6325C187.32 39.5148 188.617 37.9276 189.511 35.871C190.45 33.8143 190.919 31.3777 190.919 28.561V6.89923C190.919 6.18388 190.986 5.55794 191.12 5.02143C191.299 4.48492 191.679 4.03782 192.26 3.68015C192.842 3.32247 193.758 3.14363 195.01 3.14363C196.307 3.14363 197.223 3.34482 197.76 3.74721C198.341 4.10489 198.699 4.59669 198.833 5.22262C198.967 5.84855 199.034 6.54155 199.034 7.30161V28.7622C199.034 31.713 198.609 34.5073 197.76 37.1452C196.91 39.7383 195.636 42.0409 193.937 44.0528C192.238 46.02 190.159 47.5848 187.7 48.7473C185.286 49.865 182.491 50.4239 179.317 50.4239Z" fill="white"/>
<circle cx="52.3941" cy="27.2448" r="2.6197" fill="#5538EE"/>
<circle cx="62.3487" cy="27.2448" r="2.6197" fill="#5538EE"/>
<path d="M52.1318 37.4616C53.791 39.732 58.1571 42.9106 62.3486 37.4616" stroke="#5538EE" stroke-width="5" stroke-linecap="round"/>
</svg>
